Coordinates
version=1
nRows=24
nColumns=24
inDegrees=yes

Units are S.I. units (second, meters, Newtons, ...)
Angles are in degrees.

endheader
time	pelvis_tilt	pelvis_list	pelvis_rotation	pelvis_tx	pelvis_ty	pelvis_tz	hip_flexion_r	hip_adduction_r	hip_rotation_r	knee_angle_r	ankle_angle_r	subtalar_angle_r	mtp_angle_r	hip_flexion_l	hip_adduction_l	hip_rotation_l	knee_angle_l	ankle_angle_l	subtalar_angle_l	mtp_angle_l	lumbar_extension	lumbar_bending	lumbar_rotation
      1.47000000	     20.33534479	     -5.46179352	      2.46617917	     -0.02333707	      0.95315014	      0.27128165	    -28.77262145	      9.69709577	      2.52971390	     -6.40223473	     23.71048391	      4.72439357	     14.46261684	      8.89047642	     -6.95165069	     -9.98476749	    -27.14651539	     17.17151243	      6.60544717	     39.31501926	    -36.68179670	      7.55602767	      8.28118966
      1.47500000	     20.56809978	     -5.38724032	      2.35044661	     -0.01681086	      0.95264056	      0.27096508	    -29.57943905	      9.51092126	      2.45659583	     -6.24926237	     23.99023090	      5.15227394	     14.09267800	      8.28367404	     -6.71292016	    -10.56247390	    -24.79638039	     16.53147752	      7.18467284	     39.38602590	    -36.92152062	      7.41024152	      8.38240529
      1.48000000	     20.74818823	     -5.34897759	      2.28260478	     -0.01024335	      0.95197302	      0.27055568	    -30.32546890	      9.38235028	      2.37823941	     -6.09843437	     24.26867021	      5.53746027	     13.73499070	      7.76090171	     -6.49117147	    -11.06620174	    -22.54259998	     15.88892520	      7.77634572	     39.47529044	    -37.09351599	      7.32480719	      8.48108626
      1.48500000	     20.86842346	     -5.35902189	      2.22266863	     -0.00366438	      0.95115044	      0.27010965	    -30.98349990	      9.30327075	      2.31722757	     -5.98943414	     24.53179819	      5.90619885	     13.46441059	      7.33339492	     -6.31170350	    -11.56146225	    -20.41169280	     15.26092321	      8.39452583	     39.53815213	    -37.20276440	      7.29643643	      8.57816714
      1.49000000	     20.96644784	     -5.37643333	      2.20682610	      0.00296640	      0.95023112	      0.26958764	    -31.62186230	      9.25315019	      2.23269226	     -5.87191945	     24.79280274	      6.23972486	     13.21421198	      6.95137453	     -6.12532363	    -11.98715437	    -18.39263897	     14.66412048	      9.01602164	     39.60008493	    -37.27577795	      7.29447632	      8.66950213
      1.49500000	     20.94690281	     -5.44106410	      2.18927616	      0.00964051	      0.94910538	      0.26905587	    -32.11064298	      9.24802445	      2.20326950	     -5.79606042	     25.07855920	      6.55662022	     13.08480027	      6.73827646	     -5.98377756	    -12.38636735	    -16.54144072	     14.10155109	      9.63584506	     39.62160176	    -37.22234940	      7.34948290	      8.72735101
      1.50000000	     21.03722219	     -5.49075439	      2.23149195	      0.01629843	      0.94806895	      0.26840143	    -32.72605419	      9.25700727	      2.07823367	     -5.70588118	     25.28599165	      6.84815524	     12.91536200	      6.41227658	     -5.81428920	    -12.70799095	    -14.78481843	     13.57992946	     10.25456667	     39.65247908	    -37.27876209	      7.40470469	      8.83790320
      1.50500000	     20.98004252	     -5.58285372	      2.25392086	      0.02303284	      0.94681836	      0.26777223	    -33.15017456	      9.29711201	      2.00499743	     -5.68045480	     25.53597503	      7.15297208	     12.85921208	      6.29172002	     -5.69108443	    -13.02163718	    -13.23375717	     13.12181630	     10.85131066	     39.64064360	    -37.17599822	      7.50813257	      8.89475693
      1.51000000	     20.95374488	     -5.65656711	      2.30110571	      0.02977995	      0.94558245	      0.26712617	    -33.61248075	      9.33444371	      1.90682428	     -5.64750958	     25.75605461	      7.43566769	     12.83825811	      6.15485017	     -5.54882248	    -13.27126402	    -11.82711958	     12.71704264	     11.42879361	     39.60364853	    -37.10015990	      7.59394305	      8.95029364
      1.51500000	     20.92588406	     -5.73505288	      2.36094468	      0.03653652	      0.94433033	      0.26644422	    -34.05914720	      9.38117720	      1.79284754	     -5.64241500	     25.95914663	      7.72152446	     12.85956378	      6.04531142	     -5.41160474	    -13.46510114	    -10.58874952	     12.37947769	     11.94130356	     39.54034395	    -37.02263093	      7.69331117	      8.99982465
      1.52000000	     20.78142207	     -5.86343207	      2.47085111	      0.04325212	      0.94289808	      0.26571795	    -34.35967767	      9.51160167	      1.75565981	     -5.65526327	     26.11696064	      7.82007686	     12.89252906	      6.13096362	     -5.32584642	    -13.48100824	     -9.57452177	     12.09167449	     12.31258280	     39.50236653	    -36.81887374	      7.86188694	      9.04663619
      1.52500000	     20.78090567	     -5.86855067	      2.47998459	      0.05017653	      0.94172312	      0.26511592	    -34.81689264	      9.45506032	      1.54328792	     -5.72187358	     26.37117958	      8.30186459	     13.03891942	      5.99933373	     -5.13191676	    -13.69693402	     -8.66032065	     11.92713756	     12.81066677	     39.39131022	    -36.75701575	      7.86061759	      9.05457228
      1.53000000	     20.74935331	     -5.88572941	      2.52756247	      0.05705489	      0.94051517	      0.26448458	    -35.23436349	      9.43866519	      1.38358237	     -5.78338515	     26.53304912	      8.58473755	     13.20647371	      5.93611638	     -4.95020401	    -13.75086344	     -7.91686380	     11.79169103	     13.11667912	     39.25120089	    -36.66471909	      7.88152479	      9.06113307
      1.53500000	     20.63158247	     -5.97620611	      2.57457631	      0.06386721	      0.93920227	      0.26390308	    -35.54846184	      9.49691048	      1.42896185	     -5.84729033	     26.66488990	      8.67497493	     13.25260075	      6.02761320	     -4.86214926	    -13.67889248	     -7.40349153	     11.74036286	     13.29068428	     39.22857549	    -36.49206170	      7.97236447	      9.07923362
      1.54000000	     20.71162340	     -5.87873821	      2.60224021	      0.07087478	      0.93821835	      0.26331138	    -36.06951527	      9.35305844	      1.08120711	     -5.96977803	     26.81532772	      9.21129015	     13.78531764	      5.83728101	     -4.58169355	    -13.68205049	     -6.95020806	     11.68325685	     13.45320363	     38.87865717	    -36.50890172	      7.86651403	      9.00666772
      1.54500000	     20.58707876	     -5.86830263	      2.58874045	      0.07788288	      0.93701725	      0.26285127	    -36.33446142	      9.28024783	      0.97162190	     -6.14777649	     26.97452788	      9.49097540	     13.99164537	      5.93862953	     -4.41686854	    -13.62745628	     -6.75106368	     11.69727933	     13.54175079	     38.78795283	    -36.31101281	      7.81094636	      9.03019484
      1.55000000	     20.59664867	     -5.79957313	      2.59595007	      0.08487021	      0.93600359	      0.26233818	    -36.72499404	      9.15409560	      0.73121910	     -6.37152284	     27.12440518	      9.95316977	     14.42009620	      5.88179422	     -4.19427177	    -13.44334882	     -6.65247585	     11.75950779	     13.43965074	     38.60360764	    -36.26412624	      7.71592248	      8.95807210
      1.55500000	     20.52937880	     -5.77300253	      2.54951167	      0.09190252	      0.93495521	      0.26205118	    -37.05731347	      9.05660584	      0.77628879	     -6.54359774	     27.20650113	     10.02459984	     14.50176637	      5.95931705	     -4.05599702	    -13.31862877	     -6.78594654	     11.90287215	     13.37975954	     38.59105770	    -36.13633394	      7.60919787	      8.96193878
      1.56000000	     20.60798983	     -5.58493792	      2.56060977	      0.09901289	      0.93414926	      0.26156083	    -37.50310562	      8.81680350	      0.37219500	     -6.81611306	     27.20491232	     10.61482084	     15.68402436	      5.82387043	     -3.72138310	    -13.00504730	     -6.92939588	     11.93253133	     12.95917341	     38.23348959	    -36.15752543	      7.40414434	      8.71970575
      1.56500000	     20.53504210	     -5.49086471	      2.43644019	      0.10613326	      0.93324659	      0.26133564	    -37.73201732	      8.59567917	      0.27604702	     -7.19738815	     27.33520265	     10.95851068	     16.10921582	      5.88527539	     -3.52602122	    -12.79839212	     -7.26078960	     11.99359392	     12.62945342	     38.14916122	    -36.02115662	      7.16905517	      8.84388070
      1.57000000	     20.53681179	     -5.32712570	      2.38541361	      0.11328798	      0.93245257	      0.26101242	    -38.03625527	      8.34878017	      0.02151154	     -7.58745181	     27.38021091	     11.39757578	     16.74031060	      5.87600289	     -3.25226341	    -12.43296397	     -7.69263776	     12.04495099	     12.08405191	     38.04794018	    -35.96324907	      6.92877773	      8.71380682
      1.57500000	     20.52915559	     -5.16818138	      2.29860768	      0.12046151	      0.93171588	      0.26079948	    -38.30269799	      8.08933779	     -0.15824057	     -8.03181464	     27.38771773	     11.77259762	     17.45963950	      5.89286677	     -3.00315440	    -12.08909077	     -8.24679044	     12.07203721	     11.51154424	     37.97459886	    -35.89742077	      6.65033816	      8.66265847
      1.58000000	     20.52234216	     -4.99678611	      2.23656933	      0.12768393	      0.93103612	      0.26063808	    -38.57525529	      7.84706315	     -0.28614604	     -8.44590816	     27.06272250	     11.84370613	     20.17358433	      5.93364815	     -2.75900336	    -11.70940712	     -8.92108488	     12.10495106	     10.98908458	     37.96823961	    -35.83419378	      6.37873317	      8.48584326
      1.58500000	     20.49250423	     -4.86022461	      2.07638934	      0.13488291	      0.93041876	      0.26055182	    -38.72944870	      7.55749024	     -0.39447413	     -9.06115773	     27.08232017	     12.26595952	     20.45279835	      6.00023506	     -2.56040846	    -11.40109698	     -9.67477468	     12.07267830	     10.33151639	     37.93128638	    -35.75322097	      6.06256319	      8.56722453
